# Blender 4.4.0
# www.blender.org
o Cave
v -4.852962 -0.500000 60.524632
v -18.152962 -0.500000 47.224628
v -18.152962 6.500000 60.524632
v -18.152962 -0.500000 60.524632
v -4.852962 -0.500000 51.385418
v -9.013750 -0.500000 47.224628
v -5.520128 -0.500000 43.820152
v -0.591829 -0.500000 47.035141
v -3.569003 -1.710654 39.501099
v 4.205709 -1.710654 41.009090
v -4.302817 -1.108227 35.130081
v 7.029371 -1.108227 34.605530
v -5.692208 -1.108227 5.114037
v 5.639980 -1.108227 4.589489
v 10.133417 -1.108227 24.600183
v 13.938845 -1.108227 14.594837
v -8.638873 -1.108227 15.119385
v -8.053002 -1.108227 25.124733
v -2.059330 6.500000 46.077812
v -0.591829 4.718685 47.035141
v -6.106689 6.500000 60.524632
v -4.852962 4.725073 60.524632
v -4.852962 4.723508 51.385418
v -6.087407 6.500000 50.150974
v 1.404976 7.710654 40.641506
v 4.205709 4.416649 41.009090
v 5.549854 12.387179 34.674011
v 7.029371 10.597246 34.605530
v 5.639980 7.429519 4.589489
v 3.664696 9.212528 4.680922
v 13.938848 10.604321 14.594837
v 11.936230 12.387179 14.641364
v 8.131346 12.387179 24.657930
v 10.133417 10.602731 24.600185
v -5.520128 3.790263 43.820152
v -3.199966 6.500000 45.333714
v -18.152962 3.806419 47.224628
v -18.152962 6.500000 49.183681
v -9.013750 3.802459 47.224628
v -7.080120 6.500000 49.158260
v -3.569003 4.981745 39.501099
v 0.075057 7.710654 40.032253
v -4.302817 9.657904 35.130081
v -2.140804 13.019140 35.030006
v -2.967502 9.212528 4.987915
v -5.692208 6.501894 5.114037
v -5.931005 12.387179 15.056473
v -8.638873 9.676604 15.119385
v -8.053002 9.672074 25.124733
v -5.341802 12.387179 25.046534
v -18.152962 -0.500000 47.224628
v -18.152962 -0.500000 47.224628
v -18.152962 -0.500000 60.524632
v -18.152962 -0.500000 60.524632
v -18.152962 6.500000 60.524632
v -18.152962 6.500000 60.524632
v -4.852962 -0.500000 60.524632
v -4.852962 -0.500000 60.524632
v -9.013750 -0.500000 47.224628
v -4.852962 -0.500000 51.385418
v -0.591829 -0.500000 47.035141
v -5.520128 -0.500000 43.820152
v 4.205709 -1.710654 41.009090
v -3.569003 -1.710654 39.501099
v 7.029371 -1.108227 34.605530
v -4.302817 -1.108227 35.130081
v 13.938845 -1.108227 14.594837
v 13.938845 -1.108227 14.594837
v 5.639980 -1.108227 4.589489
v -8.053002 -1.108227 25.124733
v 10.133417 -1.108227 24.600183
v -5.692208 -1.108227 5.114037
v -8.638873 -1.108227 15.119385
v -6.087407 6.500000 50.150974
v -2.059330 6.500000 46.077812
v -0.591829 4.718685 47.035141
v -4.852962 4.723508 51.385418
v -4.852962 4.725073 60.524632
v -4.852962 4.725073 60.524632
v -6.106689 6.500000 60.524632
v -6.106689 6.500000 60.524632
v 4.205709 4.416649 41.009090
v 1.404976 7.710654 40.641506
v 7.029371 10.597246 34.605530
v 5.549854 12.387179 34.674011
v 10.133417 10.602731 24.600185
v 8.131346 12.387179 24.657930
v 5.639980 7.429519 4.589489
v 13.938848 10.604321 14.594837
v 13.938848 10.604321 14.594837
v 11.936230 12.387179 14.641364
v 3.664696 9.212528 4.680922
v -7.080120 6.500000 49.158260
v -18.152962 6.500000 49.183681
v -18.152962 6.500000 49.183681
v -18.152962 3.806419 47.224628
v -18.152962 3.806419 47.224628
v -9.013750 3.802459 47.224628
v -3.199966 6.500000 45.333714
v -5.520128 3.790263 43.820152
v -3.569003 4.981745 39.501099
v 0.075057 7.710654 40.032253
v -4.302817 9.657904 35.130081
v -2.140804 13.019140 35.030006
v -5.341802 12.387179 25.046534
v -8.053002 9.672074 25.124733
v -2.967502 9.212528 4.987915
v -5.931005 12.387179 15.056473
v -8.638873 9.676604 15.119385
v -5.692208 6.501894 5.114037
vn -0.0000 1.0000 -0.0000
vn 0.9991 -0.0000 0.0423
vn 0.9932 -0.0000 0.1160
vn 0.9668 -0.0000 -0.2556
vn 0.9565 -0.0000 -0.2918
vn -0.0000 -1.0000 -0.0000
vn -0.7510 -0.0000 -0.6603
vn -0.7489 -0.0000 -0.6627
vn -0.8672 -0.0000 -0.4979
vn -0.8573 -0.0000 -0.5148
vn -0.9424 -0.0000 -0.3343
vn -0.9360 -0.0000 -0.3519
vn -0.0000 -0.0000 -1.0000
vn 0.0428 -0.9960 -0.0781
vn 0.0483 -0.9949 -0.0882
vn 1.0000 -0.0000 -0.0000
vn 0.0226 -0.8823 -0.4701
vn 0.0243 -0.8859 -0.4632
vn 0.0378 0.9941 -0.1017
vn 0.0338 0.9953 -0.0909
vn -0.9258 -0.0000 -0.3779
vn -0.9259 -0.0000 -0.3778
vn -0.9453 -0.0000 -0.3261
vn -1.0000 -0.0000 -0.0000
vn 0.3764 -0.0000 0.9265
vn 0.3767 -0.0000 0.9263
vn 0.8268 -0.0000 0.5625
vn 0.8266 -0.0000 0.5627
vn 0.0228 0.9997 -0.0018
vn 0.0306 0.9990 -0.0326
vn 0.9783 -0.0000 -0.2070
vn -0.0021 0.9992 0.0404
vn -0.0025 0.9988 0.0480
vn -0.0326 -0.9610 -0.2747
vn -0.0324 -0.9690 -0.2449
vn 0.0039 -0.9911 0.1330
vn 0.0041 -0.9905 0.1377
vn 0.0088 -0.9539 0.3000
vn 0.9935 -0.0000 0.1137
vn 0.9954 -0.0000 0.0958
vn 0.9593 -0.0000 0.2825
vn -0.7697 -0.0000 0.6384
vn -0.9347 -0.0000 -0.3555
vn -0.0128 -0.9998 0.0145
vn -0.0114 -0.9999 0.0129
vn -0.6638 -0.6781 -0.3154
vn -0.5578 -0.6667 -0.4944
vn -0.5613 -0.6642 -0.4937
vn -0.7196 -0.6566 -0.2258
vn -0.8189 -0.5740 -0.0008
vn -0.5660 -0.5613 -0.6038
vn -0.5656 -0.5606 -0.6048
vn -0.6365 -0.6022 -0.4819
vn -0.6354 -0.6010 -0.4849
vn -0.6726 -0.7042 -0.2275
vn -0.6820 -0.6975 -0.2199
vn -0.5137 -0.5969 0.6162
vn -0.6476 -0.7342 0.2039
vn -0.6471 -0.7337 0.2074
vn -0.0000 -0.0000 1.0000
vn 0.3102 -0.6896 0.6544
vn 0.0009 -0.5856 0.8106
vn 0.2207 -0.6677 0.7109
vn 0.5809 -0.7480 0.3210
vn 0.5697 -0.7444 0.3484
vn 0.6689 -0.7156 -0.2012
vn 0.6507 -0.6553 -0.3836
vn 0.6624 -0.5548 -0.5034
vn 0.6852 -0.5698 -0.4537
vn 0.7364 -0.6595 -0.1512
vn 0.7325 -0.6673 -0.1346
vn 0.6554 -0.6429 0.3963
vn 0.6986 -0.6924 0.1802
vn 0.6982 -0.6919 0.1837
vt 0.125000 0.500000
vt 0.125000 0.750000
vt 0.375000 0.750000
vt 0.375000 0.578210
vt 0.296790 0.500000
vt 0.552587 0.421790
vt 0.375000 0.421790
vt 0.574441 0.421790
vt 0.666864 0.536346
vt 0.648204 0.555006
vt 0.648566 0.750000
vt 0.875000 0.750000
vt 0.875000 0.536824
vt 0.561382 0.578210
vt 0.577525 0.578210
vt 0.577525 0.578210
vt 0.591842 0.578210
vt 0.375000 1.000000
vt 0.625000 1.000000
vt 0.625000 0.773566
vt 0.561610 0.750000
vt 0.648204 0.555007
vt 0.666864 0.536346
vt 0.666390 0.536820
vt 0.648289 0.554922
vt 0.375000 0.000000
vt 0.375000 0.250000
vt 0.528801 0.250000
vt 0.625000 0.213176
vt 0.625000 0.000000
vt 0.675663 0.527548
vt 0.644064 0.559146
vt 0.561554 0.578210
vt 0.591943 0.578210
vt 0.561610 0.750000
vt 0.528659 0.421790
vt 0.528224 0.421790
vt 0.574703 0.421790
vt 0.644064 0.559146
vt 0.675663 0.527548
vt 0.684559 0.518651
vt 0.638941 0.564269
vt 0.631937 0.571273
vt 0.693830 0.509380
vt 0.684405 0.518805
vt 0.638633 0.564578
vt 0.574703 0.421790
vt 0.375000 0.421790
vt 0.574787 0.421790
vt 0.574787 0.421790
vt 0.559340 0.421790
vt 0.591973 0.578210
vt 0.581810 0.578210
vt 0.591943 0.578210
vt 0.591973 0.578210
vt 0.691551 0.511659
vt 0.633610 0.569600
vt 0.633610 0.569600
vt 0.631937 0.571273
vt 0.875000 0.500000
vt 0.703210 0.500000
vt 0.703210 0.500000
s 1
f 51/1/1 53/2/1 57/3/1 60/4/1 59/5/1
f 41/6/2 9/7/3 11/7/4 103/8/5
f 40/9/6 24/10/6 81/11/6 56/12/6 94/13/6
f 8/4/7 20/14/8 26/15/9 10/4/10
f 10/4/10 26/16/9 28/17/11 12/4/12
f 58/3/13 54/18/13 55/19/13 80/20/13 78/21/13
f 24/22/6 40/23/6 36/24/14 75/25/15
f 4/26/16 52/27/16 96/28/16 95/29/16 3/30/16
f 75/25/15 36/24/14 42/31/17 25/32/18
f 59/5/1 60/4/1 61/4/19 62/5/20
f 5/4/21 23/33/22 20/14/8 8/4/7
f 12/4/12 28/17/11 34/34/23 71/4/23
f 5/4/21 1/3/24 79/35/24 23/33/22
f 39/36/25 6/7/26 7/7/27 35/37/28
f 62/5/20 61/4/19 63/4/29 64/5/30
f 73/5/1 67/4/1 69/4/1 72/5/1
f 103/8/5 11/7/4 70/7/31 49/38/31
f 64/5/30 63/4/29 65/4/32 66/5/33
f 25/39/18 42/40/17 44/41/34 27/42/35
f 32/43/36 108/44/37 45/45/38 30/46/38
f 49/47/31 70/7/31 17/48/39 48/49/40
f 48/50/40 17/48/39 13/7/41 46/51/41
f 16/4/42 89/52/42 29/53/42 14/4/42
f 71/4/23 34/54/23 31/55/43 68/4/43
f 27/42/35 44/41/34 50/56/44 33/57/45
f 33/58/45 50/56/44 108/44/37 32/59/36
f 66/5/33 65/4/32 15/4/1 18/5/1
f 18/5/1 15/4/1 67/4/1 73/5/1
f 74/22/46 19/25/47 76/14/48 77/33/49
f 21/11/50 74/10/46 77/33/49 22/35/50
f 82/15/51 76/14/48 19/25/47 83/32/52
f 84/17/53 82/16/51 83/39/52 85/42/54
f 86/34/55 84/17/53 85/42/54 87/57/56
f 88/53/57 90/52/58 91/43/59 92/46/57
f 90/55/58 86/54/55 87/58/56 91/59/59
f 2/27/60 6/7/26 39/36/25 97/28/60
f 93/9/61 38/13/62 37/60/62 98/61/63
f 99/24/64 93/23/61 98/61/63 100/61/65
f 100/61/65 101/61/66 102/31/67 99/24/64
f 101/61/66 43/61/68 104/41/69 102/40/67
f 105/56/70 104/41/69 43/61/68 106/62/71
f 107/45/72 47/44/73 109/62/74 110/61/72
f 47/44/73 105/56/70 106/62/71 109/62/74
f 35/37/28 7/7/27 9/7/3 41/6/2
