# Blender 4.4.1
# www.blender.org
o SandGround
v -2.188328 -5.630913 -46.912914
v -9.897993 -6.167748 -45.736687
v -40.917305 -6.168811 -31.759830
v -29.339844 -6.168811 -32.745731
v -35.288269 -6.168811 -31.986122
v -24.519196 -6.346562 -34.585575
v -46.648228 -6.168811 -33.318340
v -52.244289 -6.168811 -36.350311
v -58.281689 -6.224092 -43.130283
v -61.210545 -6.389936 -55.504761
v -61.229527 -6.223228 -69.102859
v -43.215225 -6.168811 -82.735596
v -27.432686 -6.168810 -86.227783
v -19.909603 -7.020710 -37.912815
v -14.926507 -6.867816 -42.867477
v -21.629698 -6.275168 -89.555145
v -16.588800 -6.359080 -70.077278
v -12.235669 -6.589681 -75.924133
v -6.031036 -6.100938 -61.311691
v -11.596654 -6.323909 -59.487484
v -24.657627 -6.799368 -42.378365
v -31.725212 -7.611364 -44.182011
v -41.567406 -8.275831 -42.068459
v -18.421389 -5.574904 -51.113659
v -25.087706 -5.932883 -56.527927
v -39.916332 -10.096963 -53.225628
v -16.855398 -5.287784 -60.110867
v -24.448864 -5.687504 -68.034668
v -40.112000 -9.929765 -66.023819
v -43.809601 -6.168811 -32.276154
v -54.130688 -6.168811 -77.091461
v -47.818844 -7.736454 -39.147736
v -51.557644 -10.735452 -47.895416
v -53.056568 -11.109402 -60.629044
v -8.811911 -6.430586 -68.605255
v -38.351910 -6.168811 -31.792963
v -32.204563 -6.168811 -32.273670
v -42.622505 -6.168811 -31.951838
v -26.815300 -6.191382 -33.510029
v -49.153011 -6.168811 -34.494465
v -55.503166 -6.175721 -39.094368
v -60.080124 -6.327744 -48.738365
v -61.897324 -6.327744 -62.706692
v -58.319145 -6.175722 -73.642769
v -34.782715 -6.168811 -84.296692
v -22.280506 -6.704158 -36.010536
v -17.330557 -7.060581 -40.341805
v -12.853300 -6.547672 -44.906284
v -17.162994 -6.478028 -84.052933
v -5.395607 -5.807922 -45.380905
v -23.986000 -6.182316 -89.160126
v -14.821507 -6.585356 -73.437218
v -20.307858 -6.196792 -77.021194
v -13.747951 -6.402402 -63.840492
v -3.085907 -5.774118 -53.135685
v -11.097600 -6.162260 -54.562763
v -9.342125 -6.273359 -60.128895
v -22.147718 -6.809035 -40.313641
v -27.263914 -6.684448 -37.644909
v -16.589020 -6.173982 -47.056087
v -21.326719 -6.281691 -46.833920
v -14.230957 -5.768521 -54.192326
v -17.055779 -5.196895 -55.416050
v -17.026728 -5.805764 -65.329338
v -27.729273 -7.120876 -43.774250
v -33.958927 -7.236382 -38.027794
v -20.820045 -5.276948 -54.686211
v -28.202808 -6.903632 -50.467533
v -19.757252 -5.035477 -65.084625
v -24.034111 -5.570848 -62.145763
v -25.413111 -5.941932 -75.183426
v -36.720478 -8.050385 -43.448105
v -41.503490 -7.221843 -36.846664
v -32.074802 -7.923718 -55.680283
v -40.821388 -9.295036 -47.531288
v -31.819920 -7.659534 -68.009834
v -39.605373 -10.432115 -59.221626
v -41.436436 -8.358922 -74.024872
v -50.102646 -7.026464 -37.738247
v -55.275070 -8.877978 -45.458969
v -57.488964 -9.235023 -58.013020
v -44.991253 -6.168811 -32.666889
v -49.461754 -6.168811 -80.244186
v -45.164631 -8.170248 -40.594185
v -46.514748 -11.152778 -50.510254
v -47.314545 -11.275680 -63.386631
v -53.578117 -9.093035 -68.579903
v -52.512947 -11.553596 -53.704956
v -49.879620 -9.234694 -43.137989
v -45.784237 -6.774132 -35.605289
v -19.012199 -6.437731 -81.120834
v -7.256318 -6.022818 -52.996616
v -11.736650 -6.503487 -66.620865
v -24.643578 -6.619189 -36.905838
v -19.213211 -6.590222 -43.709343
v -14.981232 -5.840584 -50.376118
v -14.248350 -6.054075 -59.316132
v -30.352354 -6.957282 -38.054871
v -24.031078 -6.310093 -49.358212
v -19.597857 -4.846626 -59.755859
v -20.263020 -5.617132 -71.102806
v -37.935902 -7.315757 -37.541939
v -34.328876 -8.121663 -49.583595
v -31.306515 -7.851686 -61.593151
v -33.085690 -7.050283 -75.641273
v -47.450542 -6.480700 -35.033737
v -52.904640 -7.930333 -41.083847
v -56.705257 -9.448717 -51.159702
v -58.014591 -8.000237 -65.674232
v -48.246052 -9.164390 -71.486282
v -46.835667 -11.848961 -56.442898
v -45.998791 -9.713976 -45.300499
v -43.989532 -7.029405 -36.197704
vn -0.0607 0.9981 -0.0137
vn -0.0240 0.9993 0.0300
vn 0.0053 0.9794 -0.2018
vn -0.0357 0.9906 -0.1320
vn -0.0373 0.9829 -0.1802
vn 0.0465 0.9918 -0.1190
vn 0.0975 0.9702 -0.2220
vn 0.1992 0.9194 -0.3393
vn 0.4764 0.8309 -0.2874
vn 0.5802 0.8136 -0.0365
vn 0.3671 0.9206 0.1329
vn 0.0003 0.9738 0.2275
vn -0.0074 0.9999 0.0077
vn 0.0659 0.9974 0.0305
vn 0.0316 0.9903 0.1351
vn 0.0376 0.9993 0.0076
vn 0.1388 0.9886 -0.0576
vn 0.0026 1.0000 0.0003
vn -0.0549 0.9983 -0.0199
vn 0.0336 0.9987 -0.0387
vn -0.0506 0.9986 0.0147
vn -0.1194 0.9919 -0.0434
vn -0.0974 0.9759 -0.1952
vn -0.0118 0.9933 0.1149
vn -0.2180 0.9756 0.0259
vn -0.2420 0.9642 -0.1083
vn 0.2315 0.9714 -0.0532
vn -0.1611 0.9869 -0.0041
vn -0.1641 0.9761 0.1423
vn 0.0691 0.9734 -0.2183
vn 0.2252 0.9317 0.2850
vn 0.0476 0.9476 -0.3159
vn 0.1419 0.9624 -0.2316
vn 0.2563 0.9593 0.1183
vn -0.0327 0.9994 -0.0141
vn -0.0182 0.9808 -0.1941
vn -0.0482 0.9864 -0.1571
vn 0.0364 0.9772 -0.2092
vn 0.0016 0.9930 -0.1178
vn 0.1307 0.9527 -0.2743
vn 0.3228 0.8763 -0.3576
vn 0.5847 0.7959 -0.1570
vn 0.4820 0.8740 0.0613
vn 0.3155 0.9222 0.2238
vn -0.0559 0.9920 0.1133
vn 0.0697 0.9962 -0.0517
vn 0.0464 0.9936 0.1027
vn 0.0052 0.9936 0.1129
vn 0.0303 0.9995 0.0071
vn -0.0601 0.9982 -0.0080
vn 0.0380 0.9993 -0.0022
vn 0.0348 0.9993 -0.0138
vn 0.0686 0.9969 -0.0392
vn 0.1018 0.9937 -0.0478
vn -0.0601 0.9981 -0.0156
vn 0.0408 0.9988 -0.0269
vn -0.0368 0.9991 -0.0232
vn 0.0287 0.9992 0.0280
vn -0.0344 0.9956 -0.0876
vn 0.0160 0.9911 0.1318
vn -0.0566 0.9933 0.1006
vn 0.1477 0.9890 -0.0016
vn 0.1005 0.9937 0.0496
vn 0.2393 0.9666 -0.0912
vn -0.1068 0.9943 -0.0057
vn -0.0620 0.9885 -0.1377
vn -0.0966 0.9922 0.0787
vn -0.1832 0.9828 0.0214
vn 0.0691 0.9955 -0.0654
vn -0.2117 0.9773 0.0053
vn -0.0668 0.9978 -0.0018
vn -0.1144 0.9868 -0.1144
vn -0.0178 0.9799 -0.1986
vn -0.2708 0.9619 -0.0388
vn -0.1906 0.9662 -0.1737
vn -0.2267 0.9706 0.0805
vn -0.2311 0.9729 0.0117
vn -0.0561 0.9749 0.2154
vn 0.1441 0.9316 -0.3336
vn 0.3938 0.8780 -0.2723
vn 0.4887 0.8720 0.0268
vn 0.0874 0.9709 -0.2230
vn 0.1026 0.9524 0.2869
vn -0.0447 0.9635 -0.2641
vn -0.1108 0.9792 -0.1698
vn -0.0032 0.9871 0.1599
vn 0.2488 0.9384 0.2397
vn 0.2182 0.9741 -0.0601
vn 0.0640 0.9426 -0.3278
vn 0.0663 0.9657 -0.2509
vn 0.0377 0.9993 -0.0038
vn -0.0550 0.9984 -0.0129
vn -0.0044 0.9998 -0.0201
vn 0.0301 0.9969 -0.0723
vn 0.0132 0.9941 0.1077
vn 0.0342 0.9948 0.0961
vn 0.1993 0.9778 -0.0646
vn -0.0692 0.9913 -0.1122
vn -0.1273 0.9887 0.0788
vn -0.0087 0.9999 0.0062
vn 0.0950 0.9925 -0.0763
vn -0.0419 0.9849 -0.1679
vn -0.2070 0.9758 -0.0710
vn -0.2799 0.9599 0.0150
vn -0.1169 0.9869 0.1114
vn 0.1017 0.9605 -0.2591
vn 0.2457 0.9007 -0.3582
vn 0.4910 0.8627 -0.1208
vn 0.3961 0.9066 0.1456
vn 0.0764 0.9614 0.2642
vn -0.0709 0.9974 -0.0103
vn -0.1050 0.9602 -0.2589
vn 0.0212 0.9735 -0.2277
vt 0.790783 1.884238
vt 0.788186 1.722406
vt 0.953936 1.434825
vt 1.012169 1.548653
vt 0.785590 1.560573
vt 0.917760 1.289450
vt 1.034570 1.056431
vt 1.099076 1.167502
vt 1.233556 1.213069
vt 1.373597 0.799053
vt 1.280062 0.720464
vt 1.353835 0.472654
vt 1.507242 0.466923
vt 1.204904 0.695103
vt 1.217312 0.530794
vt 1.207423 0.270606
vt 1.424155 0.202699
vt 1.640887 0.134792
vt 1.200737 0.938473
vt 1.303577 1.006061
vt 1.131501 0.843629
vt 0.765323 -0.161623
vt 0.839619 -0.108672
vt 0.759803 -0.075995
vt 0.686941 -0.193046
vt 0.913915 -0.055721
vt 0.844286 0.039661
vt 0.759259 0.111334
vt 0.671087 -0.050768
vt 0.608559 -0.224468
vt 1.010257 0.041296
vt 0.945191 0.156656
vt 1.106598 0.138312
vt 1.035839 0.271797
vt 0.972042 0.409385
vt 0.872911 0.263359
vt 1.157011 0.204459
vt 1.088585 0.385365
vt 1.110401 0.518154
vt 1.025474 0.716373
vt 1.018637 0.556185
vt 1.113272 0.690188
vt 1.131501 0.843629
vt 1.034570 1.056431
vt 1.019628 0.894429
vt 0.565161 -0.036360
vt 0.503000 -0.234491
vt 0.654453 0.158962
vt 0.518111 0.172875
vt 0.441971 -0.037214
vt 0.397441 -0.244515
vt 0.759259 0.111334
vt 0.872911 0.263359
vt 0.780637 0.349489
vt 0.654453 0.158962
vt 0.972042 0.409385
vt 0.890199 0.531282
vt 0.744585 0.594122
vt 0.638296 0.387339
vt 1.018637 0.556185
vt 0.931900 0.704260
vt 1.025474 0.716373
vt 0.926462 0.886080
vt 0.766382 0.986736
vt 0.780534 0.785805
vt 0.911726 1.090445
vt 0.926462 0.886080
vt 0.743567 1.226744
vt 0.766382 0.986736
vt 0.305727 -0.053839
vt 0.289172 -0.250754
vt 0.347670 0.147834
vt 0.182291 0.100760
vt 0.182508 -0.077912
vt 0.180902 -0.256994
vt 0.429273 0.357179
vt 0.347670 0.147834
vt 0.506182 0.565200
vt 0.238626 0.481446
vt 0.207746 0.287154
vt 0.532397 0.766949
vt 0.514879 0.985889
vt 0.231950 0.918125
vt 0.249237 0.686032
vt 0.472717 1.245926
vt 0.514879 0.985889
vt 0.419943 1.539498
vt 0.054296 1.518423
vt 0.180779 1.193631
vt 0.231950 0.918125
vt 0.105787 -0.233357
vt 0.038411 -0.119766
vt -0.017878 -0.139917
vt 0.068229 -0.221539
vt -0.031010 0.001103
vt -0.108513 -0.048577
vt -0.176950 -0.113408
vt -0.073140 -0.161565
vt 0.030671 -0.209721
vt -0.101325 0.137252
vt -0.204994 0.065940
vt -0.158579 0.299578
vt -0.287662 0.213136
vt -0.414917 0.097280
vt -0.295934 -0.008064
vt -0.191175 0.497801
vt -0.334851 0.409858
vt -0.209723 0.734054
vt -0.361248 0.643712
vt -0.491420 0.546224
vt -0.453168 0.321752
vt -0.227519 1.005340
vt -0.380202 0.906983
vt -0.246373 1.295757
vt -0.396707 1.184424
vt -0.547041 1.073091
vt -0.519231 0.809658
vt -0.047082 1.105133
vt -0.013803 0.828144
vt -0.096038 1.407090
vt 0.002536 0.591221
vt 0.013486 0.388797
vt -0.013803 0.828144
vt -0.209723 0.734054
vt -0.191175 0.497801
vt -0.158579 0.299578
vt 0.031091 0.211038
vt 0.059553 0.050457
vt -0.031010 0.001103
vt 0.099156 -0.099678
vt 0.143345 -0.245176
vt 0.059553 0.050457
s 1
f 16/1/16 51/2/51 91/3/91 49/4/49
f 51/2/51 13/5/13 53/6/53 91/3/91
f 91/3/91 53/6/53 17/7/17 52/8/52
f 49/4/49 91/3/91 52/8/52 18/9/18
f 19/10/19 57/11/57 92/12/92 55/13/55
f 57/11/57 20/14/20 56/15/56 92/12/92
f 92/12/92 56/15/56 2/16/2 50/17/50
f 55/13/55 92/12/92 50/17/50 1/18/1
f 18/9/18 52/8/52 93/19/93 35/20/35
f 52/8/52 17/7/17 54/21/54 93/19/93
f 93/19/93 54/21/54 20/14/20 57/11/57
f 35/20/35 93/19/93 57/11/57 19/10/19
f 6/22/6 46/23/46 94/24/94 39/25/39
f 46/23/46 14/26/14 58/27/58 94/24/94
f 94/24/94 58/27/58 21/28/21 59/29/59
f 39/25/39 94/24/94 59/29/59 4/30/4
f 14/26/14 47/31/47 95/32/95 58/27/58
f 47/31/47 15/33/15 60/34/60 95/32/95
f 95/32/95 60/34/60 24/35/24 61/36/61
f 58/27/58 95/32/95 61/36/61 21/28/21
f 15/33/15 48/37/48 96/38/96 60/34/60
f 48/37/48 2/16/2 62/39/62 96/38/96
f 96/38/96 62/39/62 27/40/27 63/41/63
f 60/34/60 96/38/96 63/41/63 24/35/24
f 2/16/2 56/15/56 97/42/97 62/39/62
f 56/15/56 20/14/20 54/43/54 97/42/97
f 97/42/97 54/43/54 17/44/17 64/45/64
f 62/39/62 97/42/97 64/45/64 27/40/27
f 4/30/4 59/29/59 98/46/98 37/47/37
f 59/29/59 21/28/21 65/48/65 98/46/98
f 98/46/98 65/48/65 22/49/22 66/50/66
f 37/47/37 98/46/98 66/50/66 5/51/5
f 21/52/21 61/53/61 99/54/99 65/55/65
f 61/53/61 24/56/24 67/57/67 99/54/99
f 99/54/99 67/57/67 25/58/25 68/59/68
f 65/55/65 99/54/99 68/59/68 22/49/22
f 24/56/24 63/60/63 100/61/100 67/57/67
f 63/60/63 27/62/27 69/63/69 100/61/100
f 100/61/100 69/63/69 28/64/28 70/65/70
f 67/57/67 100/61/100 70/65/70 25/58/25
f 27/40/27 64/45/64 101/66/101 69/67/69
f 64/45/64 17/44/17 53/6/53 101/66/101
f 101/66/101 53/6/53 13/5/13 71/68/71
f 69/67/69 101/66/101 71/68/71 28/69/28
f 5/51/5 66/50/66 102/70/102 36/71/36
f 66/50/66 22/49/22 72/72/72 102/70/102
f 102/70/102 72/72/72 23/73/23 73/74/73
f 36/71/36 102/70/102 73/74/73 3/75/3
f 22/49/22 68/59/68 103/76/103 72/77/72
f 68/59/68 25/58/25 74/78/74 103/76/103
f 103/76/103 74/78/74 26/79/26 75/80/75
f 72/77/72 103/76/103 75/80/75 23/73/23
f 25/58/25 70/65/70 104/81/104 74/78/74
f 70/65/70 28/64/28 76/82/76 104/81/104
f 104/81/104 76/82/76 29/83/29 77/84/77
f 74/78/74 104/81/104 77/84/77 26/79/26
f 28/69/28 71/68/71 105/85/105 76/86/76
f 71/68/71 13/5/13 45/87/45 105/85/105
f 105/85/105 45/87/45 12/88/12 78/89/78
f 76/86/76 105/85/105 78/89/78 29/90/29
f 30/91/30 90/92/90 106/93/106 82/94/82
f 90/92/90 32/95/32 79/96/79 106/93/106
f 106/93/106 79/96/79 8/97/8 40/98/40
f 82/94/82 106/93/106 40/98/40 7/99/7
f 32/95/32 89/100/89 107/101/107 79/96/79
f 89/100/89 33/102/33 80/103/80 107/101/107
f 107/101/107 80/103/80 9/104/9 41/105/41
f 79/96/79 107/101/107 41/105/41 8/97/8
f 33/102/33 88/106/88 108/107/108 80/103/80
f 88/106/88 34/108/34 81/109/81 108/107/108
f 108/107/108 81/109/81 10/110/10 42/111/42
f 80/103/80 108/107/108 42/111/42 9/104/9
f 34/108/34 87/112/87 109/113/109 81/109/81
f 87/112/87 31/114/31 44/115/44 109/113/109
f 109/113/109 44/115/44 11/116/11 43/117/43
f 81/109/81 109/113/109 43/117/43 10/110/10
f 29/90/29 78/89/78 110/118/110 86/119/86
f 78/89/78 12/88/12 83/120/83 110/118/110
f 110/118/110 83/120/83 31/114/31 87/112/87
f 86/119/86 110/118/110 87/112/87 34/108/34
f 26/79/26 77/84/77 111/121/111 85/122/85
f 77/84/77 29/83/29 86/123/86 111/121/111
f 111/121/111 86/123/86 34/124/34 88/125/88
f 85/122/85 111/121/111 88/125/88 33/126/33
f 23/73/23 75/80/75 112/127/112 84/128/84
f 75/80/75 26/79/26 85/122/85 112/127/112
f 112/127/112 85/122/85 33/126/33 89/100/89
f 84/128/84 112/127/112 89/100/89 32/129/32
f 3/75/3 73/74/73 113/130/113 38/131/38
f 73/74/73 23/73/23 84/132/84 113/130/113
f 113/130/113 84/132/84 32/95/32 90/92/90
f 38/131/38 113/130/113 90/92/90 30/91/30
